# xmcd
#
# Track frame offsets: 
#        150
#        2797
#        20411
#        37738
#        41120
#        65530
#        87622
#        109622
#        124236
#        149513
#        168687
#        185436
#        200343
#        211017
#
# Disc length: 2846 seconds
#
# Revision: 0
# Processed by: cddbd v1.5.2PL0 Copyright (c) Steve Scherf et al.
# Submitted via: ExactAudioCopy v1.0b1
#
DISCID=c40b1c0e
DTITLE=Mike Jones and Lil Flip - Still Tippin In Texas
DYEAR=2005
DGENRE=Hip-Hop
TTITLE0=Intro
TTITLE1=Dedicated To The Ballers
TTITLE2=Lean To The Right (Remix)
TTITLE3=15's Stutter (TJ Music - Interlude)
TTITLE4=What You Talkin Bout
TTITLE5=That's What It Is
TTITLE6=Studio Time
TTITLE7=Flip Freestyle
TTITLE8=Look In My Eyes
TTITLE9=This And That
TTITLE10=Rock On
TTITLE11=Life Is Cold
TTITLE12=Flip Freestyle
TTITLE13=Outro
EXTD=
EXTT0=
EXTT1=
EXTT2=
EXTT3=
EXTT4=
EXTT5=
EXTT6=
EXTT7=
EXTT8=
EXTT9=
EXTT10=
EXTT11=
EXTT12=
EXTT13=
PLAYORDER=
